<svg xmlns="http://www.w3.org/2000/svg" width="120.328" height="112.506" viewBox="0 0 120.328 112.506">
  <g id="loan" transform="translate(-11.25 -14.682)">
    <path id="Path_38" data-name="Path 38" d="M131.3,74.495a3.742,3.742,0,0,0-3.481-2.343H125.88A19.265,19.265,0,0,0,116.5,74.6l-14.161,7.918H98.3a11.178,11.178,0,0,0-10.984-9.166H61.814a2,2,0,0,0-1.526.708L52.56,83.216a1.982,1.982,0,0,0-1.507-.7H13.246a2,2,0,0,0,0,3.992H37.632v28.608H13.246a2,2,0,0,0,0,3.992H51.053a2,2,0,0,0,2-2v-9.572l40.706-1.868a.462.462,0,0,0,.114-.009,28.753,28.753,0,0,0,17-7.984L130.442,78.6a3.744,3.744,0,0,0,.858-4.1Zm-82.239,40.62H41.625V86.507h7.437Zm59.028-20.29a24.74,24.74,0,0,1-14.576,6.861l-40.46,1.858V88.829l9.7-11.487h24.57a7.186,7.186,0,0,1,7,5.646L74.1,87.953a2,2,0,0,0,.473,3.934,1.97,1.97,0,0,0,.478-.058l21.679-5.322h6.137a2,2,0,0,0,.974-.253l14.616-8.173a15.25,15.25,0,0,1,7.429-1.939h1.369Z" transform="translate(0 8.081)" fill="#111"/>
    <path id="Path_39" data-name="Path 39" d="M85.963,73.848A29.583,29.583,0,1,0,56.38,44.265,29.583,29.583,0,0,0,85.963,73.848Zm0-55.174A25.591,25.591,0,1,1,60.372,44.265,25.591,25.591,0,0,1,85.963,18.674Z" transform="translate(6.346 0)" fill="#111"/>
    <path id="Path_40" data-name="Path 40" d="M78.212,50.541a2,2,0,0,0-3.992,0,9.264,9.264,0,0,0,7.235,9.025v3.356a2,2,0,0,0,3.992,0V59.576a9.246,9.246,0,0,0,0-18.069V31.16a5.263,5.263,0,0,1,3.285,4.868,2,2,0,0,0,3.992,0,9.264,9.264,0,0,0-7.277-9.035V23.646a2,2,0,0,0-3.992,0V27a9.245,9.245,0,0,0,0,18.048V55.394a5.267,5.267,0,0,1-3.243-4.853Zm10.52,0a5.262,5.262,0,0,1-3.285,4.868V45.674a5.261,5.261,0,0,1,3.285,4.867ZM78.212,36.029a5.264,5.264,0,0,1,3.243-4.854v9.71a5.269,5.269,0,0,1-3.243-4.856Z" transform="translate(8.854 0.98)" fill="#111"/>
  </g>
</svg>
