<svg id="dollar_1_" data-name="dollar (1)" xmlns="http://www.w3.org/2000/svg" width="112.597" height="112.597" viewBox="0 0 112.597 112.597">
  <g id="Group_58" data-name="Group 58" transform="translate(39.409 25.736)">
    <g id="Group_57" data-name="Group 57">
      <path id="Path_18" data-name="Path 18" d="M150.843,108.434a13.6,13.6,0,0,0-3.217-3.619,20.06,20.06,0,0,0-5.094-2.547q-2.614-.8-5.63-1.609V89.534a6.357,6.357,0,0,1,2.547,1.072,11.211,11.211,0,0,1,2.815,3.887,7.948,7.948,0,0,0,1.743,2.413,3.153,3.153,0,0,0,2.279.8A3.858,3.858,0,0,0,149.1,96.5a3.729,3.729,0,0,0,1.072-2.815,6.822,6.822,0,0,0-.938-3.485,11.13,11.13,0,0,0-2.815-3.485,16.692,16.692,0,0,0-4.826-2.681,22.729,22.729,0,0,0-4.692-.8V79.213a2.413,2.413,0,1,0-4.826,0v4.021a21.871,21.871,0,0,0-6.166,1.34,11.56,11.56,0,0,0-5.63,4.289A10.792,10.792,0,0,0,118.27,95.3a10.631,10.631,0,0,0,1.877,6.3,12.223,12.223,0,0,0,4.96,4.021,32.688,32.688,0,0,0,6.97,2.279v13.538a8.092,8.092,0,0,1-2.145-.67,7.567,7.567,0,0,1-2.681-2.279A16.885,16.885,0,0,1,125.509,115a6.5,6.5,0,0,0-1.609-2.681,3.854,3.854,0,0,0-2.413-.938,3.887,3.887,0,0,0-3.887,3.887,10.449,10.449,0,0,0,1.877,5.63,13.489,13.489,0,0,0,4.826,4.692,19.594,19.594,0,0,0,7.909,2.279v7.775a2.413,2.413,0,0,0,4.826,0v-7.775a19.094,19.094,0,0,0,7.1-1.743,13.512,13.512,0,0,0,5.9-4.96,12.922,12.922,0,0,0,2.011-7.1A12.438,12.438,0,0,0,150.843,108.434Zm-18.766-8.981a.492.492,0,0,0-.4-.134,20.626,20.626,0,0,1-2.547-1.072,5.935,5.935,0,0,1-2.011-1.609,3.3,3.3,0,0,1-.67-2.279,4.43,4.43,0,0,1,2.145-3.619,9.022,9.022,0,0,1,3.485-1.34Zm8.847,20.241A9.079,9.079,0,0,1,136.9,121.3V109.1c.67.134,1.206.4,1.743.536A10.123,10.123,0,0,1,142,111.651a4.547,4.547,0,0,1,1.34,3.485A5.606,5.606,0,0,1,140.924,119.694Z" transform="translate(-117.6 -76.8)" fill="#111"/>
    </g>
  </g>
  <g id="Group_60" data-name="Group 60">
    <g id="Group_59" data-name="Group 59">
      <path id="Path_19" data-name="Path 19" d="M56.3,0a56.3,56.3,0,1,0,56.3,56.3A56.378,56.378,0,0,0,56.3,0Zm0,107.771A51.473,51.473,0,1,1,107.771,56.3,51.486,51.486,0,0,1,56.3,107.771Z" fill="#111"/>
    </g>
  </g>
  <g id="Group_62" data-name="Group 62" transform="translate(10.724 10.724)">
    <g id="Group_61" data-name="Group 61">
      <path id="Path_20" data-name="Path 20" d="M77.575,32A45.575,45.575,0,1,0,123.15,77.575,45.709,45.709,0,0,0,77.575,32Zm0,86.324a40.749,40.749,0,1,1,40.749-40.749A40.731,40.731,0,0,1,77.575,118.324Z" transform="translate(-32 -32)" fill="#111"/>
    </g>
  </g>
</svg>
