<svg xmlns="http://www.w3.org/2000/svg" width="114.508" height="112.246" viewBox="0 0 114.508 112.246">
  <g id="australia" transform="translate(0 -5.055)">
    <g id="Group_68" data-name="Group 68" transform="translate(83.497 100.536)">
      <g id="Group_67" data-name="Group 67">
        <path id="Path_21" data-name="Path 21" d="M390.559,439.663a6.671,6.671,0,0,0-1.6-5.635,4,4,0,0,0-3.664-1,8.492,8.492,0,0,1-4.119-.4c-.684-.18-1.46-.384-2.315-.536a4.62,4.62,0,0,0-4.5,1.252,4.475,4.475,0,0,0-.764,4.458c.734,2.53,2.719,5.394,4.168,7.486l.317.458a6.868,6.868,0,0,0,5.621,3,6.481,6.481,0,0,0,1.178-.108,6.3,6.3,0,0,0,5.018-4.887,5.51,5.51,0,0,0,.062-1.955c-.015-.144-.035-.334-.037-.423.023-.05.06-.121.089-.177A4.9,4.9,0,0,0,390.559,439.663Zm-4.412-.733c-.022.052-.073.15-.111.224a4.779,4.779,0,0,0-.507,1.362,5.87,5.87,0,0,0-.016,1.748c.016.157.038.368.034.456a1.844,1.844,0,0,1-1.477,1.523,2.331,2.331,0,0,1-2.308-1.035l-.322-.465c-1.274-1.838-3.018-4.356-3.549-6.185-.009-.032-.017-.063-.025-.092.063.006.134.016.214.03.677.12,1.3.285,1.961.458a12.893,12.893,0,0,0,5.94.5A3.247,3.247,0,0,1,386.147,438.929Z" transform="translate(-373.344 -431.982)"/>
      </g>
    </g>
    <g id="Group_70" data-name="Group 70" transform="translate(-0.001 5.055)">
      <g id="Group_69" data-name="Group 69" transform="translate(0 0)">
        <path id="Path_22" data-name="Path 22" d="M114.437,60.366c-.03-.513-.057-1-.057-1.413a33.11,33.11,0,0,0-.677-7.416,7.348,7.348,0,0,1,.225-1.275c.311-1.359.737-3.22-.387-4.748a5.363,5.363,0,0,0-3.585-1.867,3.7,3.7,0,0,1-1.29-.4l-4.889-5.576a8.408,8.408,0,0,1-1.38-2.625,10.4,10.4,0,0,0-3.573-5.175l-.3-.221c-2.59-1.888-4.153-3.027-5.074-5.763a21.588,21.588,0,0,1-.541-2.185c-.454-2.115-.968-4.513-2.513-6.2a7.81,7.81,0,0,0-1.937-1.486c-.622-.367-.81-.491-1.009-.881a15.148,15.148,0,0,1-.857-2.347c-.145-.47-.294-.956-.464-1.434-.941-2.653-2.66-4.263-4.6-4.307-1-.012-2.845.375-4.028,3.286-1.151,2.832-.981,5.711-.832,8.249a16.516,16.516,0,0,1-.261,5.517c-.07.237-.261.8-.54.9-.472.168-1.659-.153-3.016-1.088-.513-.353-1.1-.7-1.713-1.071-1.38-.825-3.462-2.07-3.869-3.1a6.649,6.649,0,0,1,.878-1.942c.776-1.368,1.743-3.071,1.228-4.923a4.384,4.384,0,0,0-2.227-2.646c-1.871-1.051-4.37-1.146-6.575-1.23-.784-.03-1.525-.058-2.093-.128-3.216-.395-6.622-.312-9.74,2.943a21.511,21.511,0,0,0-1.5,1.839c-.767,1.009-2.2,2.887-2.983,2.909a4.557,4.557,0,0,1-1.561-.461,8.17,8.17,0,0,0-3.908-.811,9.681,9.681,0,0,0-5.37,2.393c-2.048,1.64-4.018,3.425-5.924,5.151l-.646.585c-.115.1-.231.206-.346.307a7.9,7.9,0,0,0-2.21,2.7,9.636,9.636,0,0,0-.7,2.575c-.176,1.089-.256,1.357-.7,1.712a11.836,11.836,0,0,1-3.522,1.516c-.577.184-1.173.375-1.729.585-.877.332-1.806.643-2.79.973C9.964,33.431,3.877,35.47,1.887,41.6c-.109.334-.227.683-.348,1.043a21.345,21.345,0,0,0-1.531,7.25c.1,2.464,1.442,4.487,2.628,6.271.407.612.791,1.19,1.084,1.726a10.576,10.576,0,0,1,1.05,5.523,25.691,25.691,0,0,0,.267,4.051A8.457,8.457,0,0,0,5.81,69.7a3.039,3.039,0,0,1,.405,1.177,4.785,4.785,0,0,1-.694,1.207A9.316,9.316,0,0,0,4.4,74.059a4.281,4.281,0,0,0,.03,3.436c.865,1.832,2.892,2.519,4.521,3.072.292.1.583.2.862.3,4.114,1.527,7.056.162,9.653-1.043A27.476,27.476,0,0,1,22.1,78.712a15.187,15.187,0,0,1,4.031-.6c.771-.047,1.568-.095,2.4-.2a22.5,22.5,0,0,0,9.338-3.59c3.995-2.509,7.939-3.481,11.72-2.888,3.669.575,6.623,2.46,9.879,6.3a13.437,13.437,0,0,0,5.217,3.985,7,7,0,0,0,1.035.332,3.209,3.209,0,0,0,1.7,2.525,4.42,4.42,0,0,0,3.534.133c.123-.036.284-.082.414-.114a9.6,9.6,0,0,1,.6,1.745,9.641,9.641,0,0,0,1.509,3.48,11.034,11.034,0,0,0,6.881,3.955c.253.047.469.081.66.112.136.021.3.047.383.066.022.017.057.045.107.09.08.117.222.407.319.6a4.951,4.951,0,0,0,2.25,2.594,3.8,3.8,0,0,0,1.572.356,3.3,3.3,0,0,0,2.081-.739,6.007,6.007,0,0,0,1.41-1.826,5.285,5.285,0,0,1,.468-.731c.284-.181.371-.188,1.23.022a7.764,7.764,0,0,0,2.37.294,5.291,5.291,0,0,0,3.908-2.213c.469-.552.632-.71.88-.767.348-.08.7-.129,1.071-.18a6.1,6.1,0,0,0,4.834-2.707,8.409,8.409,0,0,0,1.144-5.106c0-.16,0-.32,0-.48a5.021,5.021,0,0,1,.973-3.075l.156-.286a2.236,2.236,0,1,0-3.93-2.134l-.152.28a9.312,9.312,0,0,0-1.518,5.215c0,.174,0,.348,0,.522a4.587,4.587,0,0,1-.38,2.563c-.378.559-.551.613-1.74.778-.431.06-.919.127-1.46.252a5.917,5.917,0,0,0-3.285,2.23c-.537.632-.584.634-.739.643a4,4,0,0,1-1.071-.173,5.505,5.505,0,0,0-4.745.583,5.179,5.179,0,0,0-1.543,1.655,5.044,5.044,0,0,0-1.026-1.42,4.654,4.654,0,0,0-2.867-1.326c-.156-.025-.333-.053-.54-.091a6.612,6.612,0,0,1-4.193-2.332,6.99,6.99,0,0,1-.712-1.915c-.407-1.451-.914-3.258-2.428-4.319a4.351,4.351,0,0,0-3.844-.483,3.119,3.119,0,0,0-.736-1.327,4.642,4.642,0,0,0-2.417-1.278,4.051,4.051,0,0,1-.413-.119,8.913,8.913,0,0,1-3.559-2.762c-2.663-3.145-6.5-6.878-12.6-7.833-4.88-.764-9.856.419-14.791,3.518a17.986,17.986,0,0,1-7.511,2.94c-.69.086-1.383.128-2.117.172a18.85,18.85,0,0,0-5.214.833,31.456,31.456,0,0,0-3.067,1.286c-2.317,1.076-3.848,1.785-6.214.907-.319-.118-.651-.231-.983-.344a12.018,12.018,0,0,1-1.8-.712,6.625,6.625,0,0,1,.615-1,7.364,7.364,0,0,0,1.432-3.078,6.293,6.293,0,0,0-.774-3.731,4.945,4.945,0,0,1-.415-1.071,21.515,21.515,0,0,1-.208-3.369,14.852,14.852,0,0,0-1.6-7.625c-.386-.706-.842-1.393-1.284-2.058-.9-1.359-1.836-2.763-1.885-3.975a18.024,18.024,0,0,1,1.3-5.64c.127-.378.251-.743.365-1.093,1.295-3.985,5.589-5.423,10.136-6.946.981-.328,1.995-.668,2.952-1.031.446-.169.961-.333,1.506-.507a15.065,15.065,0,0,0,4.971-2.3,6.438,6.438,0,0,0,2.3-4.478,5.717,5.717,0,0,1,.353-1.44A4.069,4.069,0,0,1,29.446,25.1c.133-.116.266-.233.4-.353l.649-.587c1.855-1.681,3.774-3.42,5.716-4.974a5.234,5.234,0,0,1,2.937-1.427A4.293,4.293,0,0,1,41,18.246a8.109,8.109,0,0,0,3.376.793c2.929-.08,4.865-2.626,6.421-4.672.433-.569.842-1.107,1.173-1.453,1.512-1.578,2.961-1.967,5.966-1.6.756.093,1.588.124,2.469.158,1.615.061,3.625.138,4.553.659l.038.022a11.708,11.708,0,0,1-.736,1.441c-.847,1.491-2.006,3.534-1.175,5.722.944,2.484,3.614,4.082,5.76,5.365.554.331,1.077.644,1.471.916,1.474,1.016,4.35,2.577,7.049,1.62A5.376,5.376,0,0,0,80.7,23.366a20.109,20.109,0,0,0,.434-7.038,14.84,14.84,0,0,1,.464-6.185,5.086,5.086,0,0,1,.314.714c.138.39.268.81.405,1.256a18.675,18.675,0,0,0,1.149,3.067,6.3,6.3,0,0,0,2.715,2.695,3.822,3.822,0,0,1,.918.659c.723.789,1.1,2.554,1.436,4.112a25.107,25.107,0,0,0,.675,2.673c1.375,4.085,3.832,5.877,6.678,7.95l.3.219a6.157,6.157,0,0,1,2.043,3.186,12.348,12.348,0,0,0,2.185,3.952L105.3,46.2a6.254,6.254,0,0,0,3.773,1.831c.212.042.493.1.708.156-.044.323-.146.772-.216,1.076a7.379,7.379,0,0,0-.244,3.187,28.716,28.716,0,0,1,.582,6.5c0,.545.033,1.116.065,1.67a10.5,10.5,0,0,1-.1,3.094,2.236,2.236,0,0,0,4.273,1.32A13.384,13.384,0,0,0,114.437,60.366Z" transform="translate(0.001 -5.055)" fill="#111"/>
      </g>
    </g>
    <g id="Group_72" data-name="Group 72" transform="translate(106.052 68.905)">
      <g id="Group_71" data-name="Group 71">
        <path id="Path_23" data-name="Path 23" d="M477.553,290.817a2.242,2.242,0,0,0-3.034.9h0l-.017.031-.008.015-.009.016-.017.031h0a2.235,2.235,0,1,0,3.927,2.136h0l.017-.032.008-.014v0l.008-.015.017-.032h0A2.241,2.241,0,0,0,477.553,290.817Z" transform="translate(-474.195 -290.549)"/>
      </g>
    </g>
  </g>
</svg>
