<svg xmlns="http://www.w3.org/2000/svg" width="41.583" height="41.583" viewBox="0 0 41.583 41.583">
  <g id="question_1_" data-name="question (1)" transform="translate(-0.003)">
    <g id="Group_85" data-name="Group 85" transform="translate(0.003 0)">
      <g id="Group_84" data-name="Group 84" transform="translate(0 0)">
        <path id="Path_44" data-name="Path 44" d="M41.422,37.657l-2.855-8.308a20.316,20.316,0,1,0-18.23,11.32h.032a20.4,20.4,0,0,0,8.982-2.1l8.308,2.855a2.984,2.984,0,0,0,.971.163,2.965,2.965,0,0,0,2.792-3.926Zm-2.45,1.313a.476.476,0,0,1-.512.118l-8.8-3.025a1.233,1.233,0,0,0-.977.076,17.862,17.862,0,1,1,7.462-7.462,1.233,1.233,0,0,0-.076.977l3.025,8.8A.476.476,0,0,1,38.972,38.97Z" transform="translate(-0.003 0)" fill="#f3be42"/>
      </g>
    </g>
    <g id="Group_87" data-name="Group 87" transform="translate(18.903 29.461)">
      <g id="Group_86" data-name="Group 86">
        <path id="Path_45" data-name="Path 45" d="M233.953,362.748a1.233,1.233,0,1,0,1.233,1.233A1.247,1.247,0,0,0,233.953,362.748Z" transform="translate(-232.719 -362.748)" fill="#f3be42"/>
      </g>
    </g>
    <g id="Group_89" data-name="Group 89" transform="translate(14.004 10.369)">
      <g id="Group_88" data-name="Group 88">
        <path id="Path_46" data-name="Path 46" d="M178.528,127.674a6.14,6.14,0,0,0-6.133,6.133,1.233,1.233,0,0,0,2.465,0,3.668,3.668,0,1,1,3.668,3.668,1.233,1.233,0,0,0-1.233,1.233v5.028a1.233,1.233,0,1,0,2.465,0v-3.919a6.134,6.134,0,0,0-1.233-12.142Z" transform="translate(-172.395 -127.674)" fill="#f3be42"/>
      </g>
    </g>
  </g>
</svg>
